PathFileType	4	(X/Y/Z)	C:\Users\Basilio\Documents\Thesis Gigler\squatting_fais\c3dfiles\076\SJ_pre1\markers_experimental.trc
DataRate	CameraRate	NumFrames	NumMarkers	Units	OrigDataRate	OrigDataStartFrame	OrigNumFrames
200.000000	200.000000	4	61	mm	200.000000	153	1226
Frame#	Time	FHD			LBHD			RBHD			C7			T10			CLAV			LSHO			LUUPA			LMUPA			LDUPA			LLEP			LMEP			LRAD			LUL			LRFIN			RSHO			RUPA1			RMUPA			RDUPA			RLEP			RMEP			RRAD			RUL			RUFIN			LASI			RASI			USACR			LSACR			RSACR			LTHI1			LTHI2			LTHI3			LTHI4			LLFC			LMFC			LTIB1			LTIB2			LTIB3			LTIB4			LLMAL			LMMAL			LHEE			LMT1			LMT2			LMT5			RTHI			RTHI2			RTHI3			RTHI4			RLFC			RMFC			RTIB1			RTIB2			RTIB3			RTIB4			RLMAL			RMMAL			RHEE			RMT1			RMT2			RMT5			
		X1	Y1	Z1	X2	Y2	Z2	X3	Y3	Z3	X4	Y4	Z4	X5	Y5	Z5	X6	Y6	Z6	X7	Y7	Z7	X8	Y8	Z8	X9	Y9	Z9	X10	Y10	Z10	X11	Y11	Z11	X12	Y12	Z12	X13	Y13	Z13	X14	Y14	Z14	X15	Y15	Z15	X16	Y16	Z16	X17	Y17	Z17	X18	Y18	Z18	X19	Y19	Z19	X20	Y20	Z20	X21	Y21	Z21	X22	Y22	Z22	X23	Y23	Z23	X24	Y24	Z24	X25	Y25	Z25	X26	Y26	Z26	X27	Y27	Z27	X28	Y28	Z28	X29	Y29	Z29	X30	Y30	Z30	X31	Y31	Z31	X32	Y32	Z32	X33	Y33	Z33	X34	Y34	Z34	X35	Y35	Z35	X36	Y36	Z36	X37	Y37	Z37	X38	Y38	Z38	X39	Y39	Z39	X40	Y40	Z40	X41	Y41	Z41	X42	Y42	Z42	X43	Y43	Z43	X44	Y44	Z44	X45	Y45	Z45	X46	Y46	Z46	X47	Y47	Z47	X48	Y48	Z48	X49	Y49	Z49	X50	Y50	Z50	X51	Y51	Z51	X52	Y52	Z52	X53	Y53	Z53	X54	Y54	Z54	X55	Y55	Z55	X56	Y56	Z56	X57	Y57	Z57	X58	Y58	Z58	X59	Y59	Z59	X60	Y60	Z60	X61	Y61	Z61	

154	0.765	-4.088518142700196	1299.3125	-887.4045410156252	-152.6639099121094	1259.991088867188	-989.1236572265627	-142.5399932861328	1262.025024414063	-836.6092529296877	-226.5035400390626	1194.493896484375	-917.4088134765627	-442.0117492675782	960.154235839844	-934.1924438476565	-155.947738647461	1057.385375976563	-912.1083984375002	-172.6532897949219	1111.169311523438	-1083.394287109375	-259.5123901367188	997.1765747070315	-1221.098388671875	-276.4598999023438	954.017272949219	-1206.381469726563	-298.2326354980469	956.605895996094	-1262.697998046875	-336.3414611816407	926.661071777344	-1294.39111328125	-409.8542785644532	968.884704589844	-1269.537963867188	-462.813201904297	794.1896972656252	-1135.776245117188	-416.5374450683595	787.7400512695315	-1100.883056640625	-431.9652404785157	744.1571655273439	-1166.9033203125	-198.5170135498047	1106.755737304688	-750.9668579101564	-309.4991149902344	1021.237365722656	-612.0186767578126	-309.4834289550782	970.3040771484377	-614.3233032226564	-351.5854797363282	979.0911254882815	-572.3088989257814	-391.1288452148439	920.3697509765627	-552.7896728515626	-459.7441711425782	956.0855712890627	-597.3120727539064	-479.2280883789064	793.9771118164065	-740.6486206054689	-425.315643310547	786.1248779296877	-755.7651367187501	-452.0171813964845	743.4276733398439	-703.9039306640626	-381.6381225585938	734.4577026367189	-1036.570190429688	-388.7874145507814	733.6829833984376	-838.7925415039065	-508.1287536621095	866.0327148437502	-933.3449707031252	-529.3429565429689	845.0502929687502	-963.0471801757815	-532.1750488281251	842.173034667969	-905.3672485351565	-427.453094482422	650.6237792968751	-1132.696533203125	-354.3825683593751	609.3872680664064	-1139.4990234375	-318.6058349609376	635.2968750000001	-1116.311889648438	-344.1608886718751	548.6272583007814	-1141.94189453125	-251.0988922119141	425.526824951172	-1131.45703125	-238.1539764404297	422.1162109375001	-1021.252380371094	-256.5458679199219	285.5354003906251	-1056.829467773438	-289.2419433593751	237.8690948486329	-1123.140869140625	-267.4494628906251	233.8557434082032	-1082.792602539063	-317.1255798339844	174.2981567382813	-1051.300903320313	-407.2056579589845	77.7578811645508	-1112.8720703125	-388.7690734863282	88.62765502929689	-1026.825805664063	-471.8048706054689	43.67317581176759	-1069.982055664063	-261.4415893554688	53.73864746093751	-1042.825073242188	-254.6124877929688	53.76757049560548	-1081.700805664063	-271.1812744140626	42.79936981201173	-1133.282836914063	-388.2374572753907	573.2415161132814	-710.3470458984376	-323.3439331054688	555.4541625976564	-696.7826538085939	-297.5382995605469	577.5920410156251	-706.6764526367189	-294.8292236328126	476.2583618164064	-703.5960083007814	-262.7460937500001	434.757293701172	-698.3011474609376	-236.1947631835938	431.1491088867189	-804.2232666015627	-241.5375518798829	297.7492370605469	-714.8664550781251	-336.8666992187501	246.8064880371094	-691.4561767578126	-294.7348937988282	229.4635314941407	-705.4286499023439	-299.9766235351563	184.4400482177735	-742.4069213867189	-405.6816406250001	77.91847991943361	-713.0308837890626	-384.6643981933595	89.01238250732423	-796.5560302734377	-466.2031250000001	50.77073669433595	-760.8679199218751	-258.0770568847657	52.27084732055665	-773.3938598632815	-256.0198669433594	55.75054168701173	-727.8652343750001	-283.7014770507813	35.16981887817384	-674.9304199218751	
155	0.77	-3.208007335662843	1295.961059570313	-887.562438964844	-152.0973663330078	1257.08935546875	-989.0859985351565	-141.8262481689453	1259.130615234375	-836.5708007812502	-225.9104156494141	1191.892578125	-917.432067871094	-441.8759155273439	958.0654907226565	-934.1287841796877	-155.4855651855469	1054.56884765625	-912.1132812500002	-172.0069580078125	1108.259399414063	-1083.280517578125	-259.0475463867188	994.5869750976565	-1221.007446289063	-276.5203552246094	951.7564086914065	-1206.63134765625	-298.1827697753907	954.384216308594	-1262.766723632813	-336.0549926757813	924.3992919921877	-1294.5302734375	-409.6347656250001	966.7133789062502	-1269.887817382813	-461.3540954589845	792.4782714843752	-1136.296630859375	-416.9415588378907	786.2207641601565	-1100.789428710938	-432.3415527343751	742.2394409179689	-1166.673461914063	-198.0301666259766	1103.893676757813	-751.0516967773439	-308.9270324707032	1018.714050292969	-612.0599975585939	-309.0325622558594	967.7823486328127	-614.3811035156251	-351.0434875488282	976.5836181640627	-572.1562500000001	-390.7958374023439	918.0027465820315	-552.6199951171876	-459.1563720703126	954.0310058593752	-597.0586547851564	-479.4402770996095	792.105163574219	-740.5051879882814	-425.5904846191407	784.2158203125002	-755.7900390625001	-452.256805419922	741.4100952148439	-704.1304321289064	-382.6223449707032	732.5408935546876	-1036.031982421875	-389.0531311035157	731.9542846679689	-838.6892089843752	-508.5174865722657	863.8616333007815	-933.2112426757815	-529.6801757812501	843.1956787109377	-962.9388427734377	-532.3637084960939	840.472351074219	-905.296813964844	-428.107147216797	649.4299926757814	-1132.922973632813	-354.5203552246094	608.4918212890626	-1139.376586914063	-319.0441284179688	634.4907836914064	-1116.092529296875	-343.9561157226563	547.7885742187501	-1142.486450195313	-250.4300994873047	425.1494750976564	-1131.5791015625	-237.5146789550782	421.6961975097657	-1021.337707519531	-256.0216979980469	285.1241760253907	-1056.79443359375	-289.5303344726563	237.6660156250001	-1123.464965820313	-267.1170654296876	233.5922393798829	-1082.769653320313	-316.9454040527344	174.0325317382813	-1051.310668945313	-407.187225341797	77.70476531982423	-1112.88623046875	-388.7283630371095	88.63775634765626	-1026.779174804688	-471.8303833007814	43.70948791503907	-1069.980712890625	-261.4151306152344	53.71793746948244	-1042.771728515625	-254.6651611328126	53.78004074096681	-1081.70068359375	-271.1924133300782	42.79649734497071	-1133.27587890625	-388.0258178710939	572.2841796875001	-710.1677246093751	-322.9763183593751	554.7362670898439	-696.7221069335939	-297.2470092773438	576.9797363281251	-706.7067260742189	-294.1808166503907	475.6033630371095	-703.3696289062501	-261.9315795898438	434.2488403320314	-698.1841430664064	-235.5856323242188	430.5526733398439	-804.0125732421877	-240.907699584961	297.3381958007813	-714.9280395507814	-336.2668151855469	246.7108612060547	-691.3507690429689	-294.2824096679688	229.2411041259766	-705.4223632812501	-299.7011718750001	184.1860046386719	-742.3809204101564	-405.594696044922	77.91438293457033	-712.9761352539064	-384.539764404297	88.99857330322267	-796.537536621094	-466.1980895996095	50.7827491760254	-760.8635864257814	-258.0509948730469	52.27759552001955	-773.3854980468752	-256.0209350585938	55.78814697265626	-727.8759155273439	-283.6943969726563	35.12989044189454	-674.9896240234376	
156	0.775	-2.860149621963501	1293.328002929688	-887.6541748046877	-151.6822357177735	1254.156127929688	-989.4088134765627	-141.1638336181641	1256.220581054688	-836.6252441406252	-225.2569732666016	1189.197509765625	-917.478210449219	-441.8752441406251	955.901550292969	-933.9708251953127	-155.0466613769532	1051.759765625	-912.112976074219	-171.6453857421875	1105.421630859375	-1083.495361328125	-258.7889404296876	992.1981201171877	-1221.322509765625	-276.1242980957032	949.2404785156252	-1206.60693359375	-297.8054199218751	952.025329589844	-1263.001586914063	-336.7880859375001	922.2676391601565	-1295.152221679688	-409.4196166992189	964.7178955078127	-1270.519409179688	-463.3843688964845	790.8536376953127	-1135.890502929688	-417.3538818359376	784.346862792969	-1100.720092773438	-432.6786499023439	740.5355834960939	-1166.669067382813	-197.4747772216797	1101.129028320313	-751.0381469726564	-308.3745727539063	1016.087036132813	-611.9819335937501	-308.5556945800782	965.294372558594	-614.2136230468751	-350.5359497070313	974.2398071289065	-572.0686645507814	-390.4157714843751	915.7604980468752	-552.4843750000001	-458.7709045410157	951.906921386719	-596.7743530273439	-479.4317626953126	790.2393188476565	-740.3944091796876	-425.6056213378907	782.3248291015627	-755.7185668945314	-452.4575500488282	739.4767456054689	-704.0227050781251	-387.3696594238282	730.3150024414064	-1032.873168945313	-389.2849121093751	729.9262084960939	-838.7475585937502	-508.6587219238282	862.0503540039065	-933.1657714843752	-529.8605346679689	841.3410644531252	-962.856872558594	-532.6433105468751	838.654724121094	-905.2852783203127	-428.396453857422	648.2102050781251	-1132.88232421875	-354.5954895019532	607.5722045898439	-1139.313232421875	-319.3307189941407	633.9060058593751	-1115.811889648438	-343.3258361816407	547.0771484375001	-1141.281127929688	-249.396469116211	424.6601562500001	-1131.525146484375	-236.9724578857422	421.2234497070314	-1021.377319335938	-255.1442260742188	285.2102050781251	-1056.518188476563	-289.2586669921876	237.2693328857422	-1123.32470703125	-266.7597961425782	233.2978210449219	-1082.6630859375	-316.6773681640626	173.9430084228516	-1051.2587890625	-407.0971069335939	77.73488616943361	-1112.907958984375	-388.6987609863282	88.61582183837892	-1026.763671875	-471.8055114746095	43.6971778869629	-1069.982788085938	-261.4043273925782	53.69584274291994	-1042.756103515625	-254.6040954589844	53.69139862060548	-1081.750122070313	-271.1616516113282	42.83817672729493	-1133.298217773438	-387.7238159179689	571.1763305664064	-710.0054321289064	-322.5657348632813	554.0037841796876	-696.6829223632814	-297.1307678222657	576.4945678710939	-706.8925170898439	-293.4802856445313	475.0413818359376	-703.1660156250001	-261.2210693359376	433.6977539062501	-698.0982666015626	-235.0401306152344	429.972625732422	-803.8421020507815	-240.2963867187501	296.9590454101563	-714.8859252929689	-335.7398986816407	246.6022491455079	-691.1710815429689	-293.8611145019532	228.9910278320313	-705.4640502929689	-299.4120178222657	183.9285278320313	-742.4664916992189	-405.5597229003907	77.96168518066408	-712.9526977539064	-384.4973754882814	89.0619354248047	-796.5382080078127	-466.1910705566407	50.7919387817383	-760.8596801757814	-258.0235290527344	52.27257919311525	-773.4206542968752	-256.0193176269532	55.76145553588869	-727.8759155273439	-283.6885681152344	35.11996841430665	-674.9769897460939	
157	0.78	-2.059247732162476	1290.150024414063	-887.8370361328127	-151.427490234375	1251.242797851563	-989.3789672851565	-140.5259094238282	1253.364379882813	-836.859558105469	-224.7500305175782	1186.480346679688	-917.5440673828127	-441.8869628906251	953.7357177734377	-933.9118652343752	-154.5827178955078	1048.9267578125	-912.179870605469	-171.327133178711	1102.805053710938	-1083.565185546875	-258.3122253417969	989.7134399414065	-1221.293701171875	-276.1409606933594	946.8682861328127	-1206.973266601563	-297.8699035644532	949.6357421875002	-1263.100952148438	-336.6210937500001	920.0213623046877	-1295.285034179688	-409.1470947265626	962.8440551757815	-1270.317993164063	-461.675994873047	789.0430908203127	-1136.33203125	-417.7711791992189	782.8113403320315	-1100.634521484375	-432.9647216796876	738.7345581054689	-1166.500610351563	-196.8875579833985	1098.2666015625	-751.1692504882814	-307.8556823730469	1013.533996582031	-611.9011230468751	-308.0944213867188	962.7991333007815	-614.1980590820314	-349.9945068359376	971.9421997070315	-571.9066772460939	-390.0386352539064	913.3953857421877	-552.3500976562501	-458.3748474121095	950.0752563476565	-596.5482788085939	-479.599822998047	788.4819335937502	-740.3181762695314	-425.7704467773439	780.5427856445315	-755.6617431640626	-452.6134033203126	737.5909423828126	-704.0384521484376	-387.1654357910157	728.3465576171876	-1033.210327148438	-389.5447387695314	728.1124877929689	-838.640075683594	-508.873016357422	860.0993652343752	-932.9885253906252	-530.0022583007814	839.3279418945315	-962.6298828125002	-532.8071899414064	836.7832031250002	-905.0705566406252	-428.5985412597657	646.8189697265626	-1132.886108398438	-354.4076538085938	606.7085571289064	-1139.146118164063	-319.6123046875001	633.0527343750001	-1115.487548828125	-343.0537109375001	546.3892822265626	-1141.472534179688	-248.4849853515626	424.1969604492189	-1131.571044921875	-236.4828796386719	420.753631591797	-1021.442321777344	-254.5831756591797	284.8767089843751	-1056.442504882813	-288.8823852539063	236.8687896728516	-1123.285888671875	-266.3262023925782	232.8200988769532	-1082.573608398438	-316.4792480468751	173.7431182861328	-1051.190185546875	-407.0655822753907	77.77009582519533	-1112.911865234375	-388.6935119628907	88.61751556396486	-1026.751831054688	-471.788543701172	43.68453216552735	-1069.937866210938	-261.4034729003907	53.70814132690431	-1042.772338867188	-254.6466064453126	53.74530029296876	-1081.735107421875	-271.1574401855469	42.86667251586915	-1133.26025390625	-387.5924682617189	570.1380615234376	-709.9568481445314	-322.2117004394532	553.4728393554689	-696.5563354492189	-296.8672180175782	575.6994628906251	-706.7200927734376	-292.8561096191407	474.5688476562501	-702.8331909179689	-260.4965209960938	433.1297607421876	-697.9329833984376	-234.3084106445313	429.7108459472657	-803.616882324219	-239.7310485839844	296.5238952636719	-714.8674926757814	-335.2097167968751	246.3171539306641	-691.1567382812501	-293.4845275878907	228.6643218994141	-705.4208374023439	-299.1655883789063	183.673812866211	-742.5511474609376	-405.5039367675782	77.96593475341798	-712.9494018554689	-384.3365173339845	89.03545379638673	-796.5283203125002	-466.216522216797	50.80418777465822	-760.8187255859376	-258.0256347656251	52.28991699218751	-773.401062011719	-255.9925994873047	55.7788772583008	-727.8769531250001	-283.6573791503907	35.10523986816407	-674.9848632812501	
